<?xml version="1.0" encoding="UTF-8" standalone="no"?>
<!-- Created with Inkscape (http://www.inkscape.org/) -->

<svg
   width="203mm"
   height="33mm"
   viewBox="0 0 203 33"
   version="1.1"
   id="svg1"
   xmlns="http://www.w3.org/2000/svg"
   xmlns:svg="http://www.w3.org/2000/svg">
  <defs
     id="defs1" />
  <g
     id="layer1">
    <path
       id="path60"
       d="m 11.451616,26.111102 h -1.3759 -0.3589597 L 8.1016772,32.093279 H 1.1021293 L 6.7256781,11.155252 h 8.1656979 c 3.85861,0 6.31133,0.837787 7.71737,2.243526 1.16655,1.166702 1.64523,2.721901 1.64523,4.366979 0,1.974343 -0.5986,3.738888 -2.03403,5.17477 -0.89737,0.897369 -2.12405,1.645224 -3.79872,2.183631 l 2.90135,6.969121 h -7.53816 z m 2.1239,-4.995105 v 0 c 1.3759,0 2.39254,-0.388951 2.96099,-0.957255 0.38895,-0.388951 0.59855,-0.897167 0.59855,-1.435731 0,-0.418691 -0.14991,-0.807642 -0.44869,-1.106715 -0.38895,-0.38895 -1.07722,-0.598246 -2.06417,-0.598246 h -2.48286 l -1.10626,4.097947 z"
       style="fill:#000000;fill-opacity:1;fill-rule:nonzero;stroke:none;stroke-width:0.504084" />
    <path
       id="path61"
       d="m 28.349356,11.155252 h 17.85721 l -1.5555,5.743178 h -10.97778 l -0.56785,2.123755 h 10.22931 l -1.34585,5.055049 h -10.22992 l -0.62799,2.273208 h 11.12694 l -1.52536,5.742837 h -18.00682 z"
       style="fill:#000000;fill-opacity:1;fill-rule:nonzero;stroke:none;stroke-width:0.504084" />
    <path
       id="path62"
       d="m 48.182316,11.155252 h 6.55047 l 4.75608,9.990587 2.69175,-9.990587 h 6.93947 l -5.62331,20.938027 h -6.22155 l -4.96497,-10.409029 -2.81223,10.409029 h -6.93947 z"
       style="fill:#000000;fill-opacity:1;fill-rule:nonzero;stroke:none;stroke-width:0.504084" />
    <path
       id="path63"
       d="m 75.636276,17.077784 h -6.16142 l 1.58555,-5.922532 h 19.32268 l -1.58549,5.922532 h -6.16157 l -4.03821,15.015495 h -6.99915 z"
       style="fill:#000000;fill-opacity:1;fill-rule:nonzero;stroke:none;stroke-width:0.504084" />
    <path
       id="path64"
       d="m 124.34811,24.974548 c 0,-1.076814 0.14945,-2.243468 0.44868,-3.380177 l 2.81162,-10.439119 h 7.11892 l -2.93134,10.887805 c -0.14991,0.598247 -0.23965,1.166701 -0.23965,1.645228 0,1.734803 1.0171,2.632307 2.87167,2.632307 0.86718,0 1.67522,-0.29922 2.24322,-0.867367 0.62799,-0.628384 1.04708,-1.436021 1.49577,-3.051109 l 3.02112,-11.246864 h 7.11904 l -3.32047,12.323687 c -0.7479,2.781773 -1.82467,4.815641 -3.2903,6.281402 -1.97403,1.974181 -4.96501,2.751925 -8.28546,2.751925 -5.89224,0 -9.06282,-2.811905 -9.06282,-7.537718"
       style="fill:#000000;fill-opacity:1;fill-rule:nonzero;stroke:none;stroke-width:0.504084" />
    <path
       id="path65"
       d="m 150.25236,11.155252 h 6.5506 l 4.75594,9.990587 2.6919,-9.990587 h 6.93947 l -5.6233,20.938027 h -6.22155 L 154.3804,21.68425 151.56821,32.093279 h -6.93946 z"
       style="fill:#000000;fill-opacity:1;fill-rule:nonzero;stroke:none;stroke-width:0.504084" />
    <path
       id="path66"
       d="m 173.13629,11.155252 h 6.99914 l -5.62314,20.938027 h -6.99916 z"
       style="fill:#000000;fill-opacity:1;fill-rule:nonzero;stroke:none;stroke-width:0.504084" />
    <path
       id="path67"
       d="m 186.66321,17.077784 h -6.1615 l 1.58549,-5.922532 h 19.32269 l -1.5855,5.922532 h -6.16157 l -4.03821,15.015495 h -6.99915 z"
       style="fill:#000000;fill-opacity:1;fill-rule:nonzero;stroke:none;stroke-width:0.504084" />
    <path
       id="path70"
       d="m 13.708846,7.6446117 -1.51593,-0.740448 c -0.54481,0.561699 -0.89036,0.842626 -1.52692,0.842626 -0.8764997,0 -1.0403697,-0.723461 -0.7998797,-1.6342391 0.2493197,-0.944804 0.7966097,-1.634239 1.6419597,-1.634239 0.66801,0 0.82619,0.348927 0.94107,0.902209 l 1.99174,-0.587309 c -0.20421,-1.123501 -0.74761,-1.753504 -2.54245,-1.753504 -1.9618997,0 -3.6449788,1.157678 -4.1506785,3.072843 -0.4652697,1.7619731 0.3469597,3.072692 2.5174485,3.072692 1.73238,0 2.74635,-0.7574357 3.44364,-1.5406309"
       style="fill:#000000;fill-opacity:1;fill-rule:nonzero;stroke:none;stroke-width:0.504084" />
    <path
       id="path71"
       d="m 20.779476,6.1039806 c 0.52354,-1.983166 -0.57899,-3.064273 -2.5616,-3.064273 -1.98276,0 -3.68157,1.098096 -4.20511,3.081261 -0.52369,1.9833161 0.57884,3.064274 2.5616,3.064274 1.98256,0 3.68142,-1.0979449 4.20511,-3.081262 z m -2.10223,0.01699 c -0.28319,1.0725381 -0.88834,1.6258201 -1.70224,1.6258201 -0.81419,0 -1.14356,-0.570269 -0.86032,-1.6428091 0.28305,-1.072387 0.88835,-1.625669 1.7024,-1.625669 0.81389,0 1.14341,0.570271 0.86016,1.642658"
       style="fill:#000000;fill-opacity:1;fill-rule:nonzero;stroke:none;stroke-width:0.504084" />
    <path
       id="path72"
       d="m 26.814566,9.0916336 1.5732,-5.958217 h -1.94103 l -0.42922,1.625669 c -0.12819,0.485231 -0.32665,1.276843 -0.34424,1.540631 -0.0913,-0.246749 -0.52924,-1.038362 -0.76661,-1.404477 l -1.1418,-1.761823 h -1.78456 l -1.57324,5.958217 h 1.94102 l 0.481,-1.8215559 c 0.12814,-0.48508 0.32679,-1.2766921 0.34418,-1.5406301 0.11822,0.263938 0.542,1.0299431 0.76893,1.3960591 l 1.22357,1.9661269 z"
       style="fill:#000000;fill-opacity:1;fill-rule:nonzero;stroke:none;stroke-width:0.504084" />
    <path
       id="path73"
       d="m 34.539596,4.5719196 0.37983,-1.438503 h -6.11514 l -0.37977,1.438503 h 2.04531 l -1.19341,4.519714 h 2.0246 l 1.19342,-4.519714 z"
       style="fill:#000000;fill-opacity:1;fill-rule:nonzero;stroke:none;stroke-width:0.504084" />
    <path
       id="path74"
       d="m 39.679786,9.0916336 -1.07737,-5.958217 h -2.04537 l -4.22367,5.958217 h 2.17048 l 0.67291,-1.0469309 h 2.1915 l 0.12017,1.0469309 z m -2.45599,-2.3577999 h -1.21041 l 0.23904,-0.3915221 c 0.46083,-0.757486 0.66327,-1.089526 0.86279,-1.489466 -0.0117,0.39994 0.0179,0.72341 0.0764,1.489466 z"
       style="fill:#000000;fill-opacity:1;fill-rule:nonzero;stroke:none;stroke-width:0.504084" />
    <path
       id="path75"
       d="m 42.079176,9.0916336 1.57324,-5.958217 h -2.06633 l -1.5731,5.958217 z"
       style="fill:#000000;fill-opacity:1;fill-rule:nonzero;stroke:none;stroke-width:0.504084" />
    <path
       id="path76"
       d="m 49.257986,9.0916336 1.57319,-5.958217 h -1.94102 l -0.42923,1.625669 c -0.12819,0.485231 -0.32665,1.276843 -0.34424,1.540631 -0.0913,-0.246749 -0.52924,-1.038362 -0.76656,-1.404477 l -1.14185,-1.761823 h -1.78456 l -1.57319,5.958217 h 1.94097 l 0.481,-1.8215559 c 0.12819,-0.48508 0.3268,-1.2766921 0.34424,-1.5406301 0.11815,0.263938 0.54194,1.0299431 0.76888,1.3960591 l 1.22356,1.9661269 z"
       style="fill:#000000;fill-opacity:1;fill-rule:nonzero;stroke:none;stroke-width:0.504084" />
    <path
       id="path77"
       d="m 55.643566,9.0916336 0.36636,-1.3874399 h -3.66267 l 0.26964,-1.021373 h 2.15989 l 0.36194,-1.3704531 h -2.16005 l 0.20904,-0.791612 h 3.58968 l 0.36622,-1.387339 h -5.59326 l -1.5732,5.958217 z"
       style="fill:#000000;fill-opacity:1;fill-rule:nonzero;stroke:none;stroke-width:0.504084" />
    <path
       id="path78"
       d="m 62.436386,9.0916336 -0.86087,-2.2726609 c 0.8822,-0.297912 1.53962,-0.8511951 1.77553,-1.7449351 0.37308,-1.412896 -0.62501,-1.940621 -2.33653,-1.940621 h -3.2663 l -1.57325,5.958217 h 1.99335 l 0.53039,-2.0087219 h 0.8139 l 0.65914,2.0087219 z m -1.11064,-3.975052 c -0.11232,0.425699 -0.43614,0.664029 -1.09356,0.664029 h -1.18969 l 0.34379,-1.302299 h 1.22114 c 0.63645,0 0.81717,0.263787 0.71832,0.63827"
       style="fill:#000000;fill-opacity:1;fill-rule:nonzero;stroke:none;stroke-width:0.504084" />
    <path
       id="path79"
       d="m 65.111006,1.4374786 h 10.63874 l -2.21137,7.747915 h -10.63873 z"
       style="fill:#5fa8d1;fill-opacity:1;fill-rule:evenodd;stroke:none;stroke-width:0.504084" />
    <path
       id="path80"
       d="m 76.420776,9.1853936 1.65849,-5.958218 h -2.06619 l -1.65864,5.958218 z"
       style="fill:#000000;fill-opacity:1;fill-rule:nonzero;stroke:none;stroke-width:0.504084" />
    <path
       id="path81"
       d="m 83.599536,9.1853936 1.65853,-5.958218 h -1.94102 l -0.45251,1.62567 c -0.13506,0.485231 -0.3451,1.276844 -0.36638,1.540631 -0.0878,-0.246799 -0.51426,-1.038412 -0.74644,-1.404478 l -1.11655,-1.761823 h -1.78456 l -1.65853,5.958218 h 1.94102 l 0.50696,-1.8215569 c 0.13505,-0.485129 0.3451,-1.2767431 0.36637,-1.5406311 0.11432,0.263888 0.52727,1.0299451 0.74891,1.3960101 l 1.19539,1.9661779 z"
       style="fill:#000000;fill-opacity:1;fill-rule:nonzero;stroke:none;stroke-width:0.504084" />
    <path
       id="path82"
       d="m 91.361466,6.6403767 0.20132,-0.7234611 h -3.21403 l -0.34349,1.2341471 h 1.32514 v 0 c -0.19714,0.408509 -0.56896,0.732031 -1.42474,0.732031 -0.93906,0 -1.2713,-0.493699 -0.94208,-1.6768341 0.26308,-0.944753 0.7786,-1.634238 1.72825,-1.634238 0.69916,0 0.90609,0.306382 1.00383,0.817068 l 2.00016,-0.587257 c -0.21132,-1.115134 -0.76687,-1.668416 -2.59317,-1.668416 -2.21222,0 -3.76685,1.31087 -4.25728,3.072843 -0.54255,1.9491901 0.51159,3.072691 2.51533,3.072691 2.11831,0 3.52691,-0.9361829 4.00076,-2.6385739"
       style="fill:#000000;fill-opacity:1;fill-rule:nonzero;stroke:none;stroke-width:0.504084" />
    <path
       id="path83"
       d="m 73.077546,3.2263186 -2.26394,2.190496 1.94132,3.768579 h -2.39812 l -1.49476,-2.956853 2.98725,-3.002222 z"
       style="fill:#ffffff;fill-opacity:1;fill-rule:nonzero;stroke:none;stroke-width:0.504084" />
    <path
       id="path84"
       d="m 67.899796,9.1583746 h -3.4745 l 1.19211,-3.990174 h 2.71651 z"
       style="fill:#ffffff;fill-opacity:1;fill-rule:nonzero;stroke:none;stroke-width:0.504084" />
    <path
       id="path85"
       d="m 68.065136,3.8690266 -0.21232,-0.642556 -0.56613,0.642556 -0.29277,-0.642556 -0.48614,0.642556 -0.6417,-0.642556 -0.0679,1.285564 h 1.3519 1.3513 l 0.47923,-1.285564 z"
       style="fill:#ffffff;fill-opacity:1;fill-rule:nonzero;stroke:none;stroke-width:0.504084" />
    <path
       id="path86"
       d="m 68.437056,4.8152406 h -2.7033 l 0.0351,-0.165893 h 2.70335 z"
       style="fill:#ffffff;fill-opacity:1;fill-rule:nonzero;stroke:none;stroke-width:0.504084" />
    <path
       id="path2"
       style="fill:#5fa8d1;stroke-width:0.264583"
       d="M 96.407551,1.4201046 89.562496,29.412716 c -0.38563,1.593799 1.02777,2.557001 2.66754,2.564701 l 0.71468,0.0036 16.395874,-21.113443 h 6.81302 l 0.0992,21.199743 h -4.8891 l 7.58765,0.03566 6.67495,-28.3282194 c 0.26814,-1.134836 -1.83675,-2.358803 -3.00283,-2.358801 z m 22.915899,9.4485194 c 0.58109,0 1.03197,0.468237 1.03197,1.031463 v 0.0062 c 0,0.563246 -0.45692,1.037663 -1.03197,1.037663 -0.58111,0 -1.03147,-0.468624 -1.03147,-1.031979 v -0.0057 c 0,-0.563292 0.45622,-1.037664 1.03147,-1.037664 z m 0,0.112655 c -0.51598,0 -0.91313,0.420988 -0.91313,0.925009 v 0.0057 c 0,0.504085 0.39128,0.919324 0.91313,0.919324 0.51578,0 0.91312,-0.421032 0.91312,-0.925008 v -0.0062 c 0,-0.503956 -0.39148,-0.918808 -0.91312,-0.918808 z m -0.48008,0.355534 h 0.53382 c 0.30841,0 0.49764,0.130811 0.49764,0.379822 0,0.171833 -0.0828,0.278716 -0.2191,0.337964 l 0.25476,0.373104 h -0.41496 l -0.20774,-0.307991 h -0.077 v 0.307991 h -0.36742 z m 0.36742,0.302308 v 0.21394 h 0.15451 c 0.0889,0 0.14211,-0.03581 0.14211,-0.10697 0,-0.07116 -0.0476,-0.10697 -0.13642,-0.10697 z m -9.77098,2.337326 -13.636866,18.017507 13.603796,0.06408 z" />
  </g>
</svg>
